<svg xmlns="http://www.w3.org/2000/svg" width="1600" height="900" viewBox="0 0 1600 900">
  <defs>
    <linearGradient id="wall" x1="0" y1="0" x2="0" y2="1">
      <stop offset="0" stop-color="#EFE8DA"/>
      <stop offset="0.65" stop-color="#F4EEE2"/>
      <stop offset="1" stop-color="#F7F1E4"/>
    </linearGradient>
    <linearGradient id="floor" x1="0" y1="0" x2="0" y2="1">
      <stop offset="0" stop-color="#C4A57E"/>
      <stop offset="1" stop-color="#B08D68"/>
    </linearGradient>
    <linearGradient id="skyglow" x1="0" y1="0" x2="0" y2="1">
      <stop offset="0" stop-color="#FCEFCF"/>
      <stop offset="0.55" stop-color="#F8E3B8"/>
      <stop offset="1" stop-color="#F3D9A9"/>
    </linearGradient>
    <linearGradient id="beam" x1="0" y1="0" x2="1" y2="1">
      <stop offset="0" stop-color="#FFE9B8" stop-opacity="0.55"/>
      <stop offset="1" stop-color="#FFE9B8" stop-opacity="0"/>
    </linearGradient>
    <linearGradient id="screenL" x1="0" y1="0" x2="0" y2="1">
      <stop offset="0" stop-color="#F2EFE7"/>
      <stop offset="1" stop-color="#E4DECF"/>
    </linearGradient>
    <linearGradient id="deskface" x1="0" y1="0" x2="0" y2="1">
      <stop offset="0" stop-color="#8F7250"/>
      <stop offset="1" stop-color="#7C6244"/>
    </linearGradient>
    <radialGradient id="vign" cx="0.5" cy="0.42" r="0.85">
      <stop offset="0.6" stop-color="#1C1B18" stop-opacity="0"/>
      <stop offset="1" stop-color="#1C1B18" stop-opacity="0.10"/>
    </radialGradient>
  </defs>

  <!-- wall & floor -->
  <rect width="1600" height="900" fill="url(#wall)"/>
  <rect x="0" y="628" width="1600" height="272" fill="url(#floor)"/>
  <rect x="0" y="628" width="1600" height="10" fill="#96774F"/>
  <!-- floorboard seams -->
  <g stroke="#9E8158" stroke-width="3" opacity="0.5">
    <line x1="0" y1="700" x2="1600" y2="700"/>
    <line x1="0" y1="790" x2="1600" y2="790"/>
    <line x1="260" y1="638" x2="230" y2="700"/>
    <line x1="760" y1="700" x2="730" y2="790"/>
    <line x1="1210" y1="638" x2="1185" y2="700"/>
    <line x1="1420" y1="700" x2="1395" y2="790"/>
  </g>
  <!-- skirting -->
  <rect x="0" y="612" width="1600" height="16" fill="#DCD2BE"/>

  <!-- ===== window (right) ===== -->
  <g>
    <rect x="1128" y="52" width="416" height="580" fill="#C9BBA0"/>
    <rect x="1144" y="68" width="384" height="548" fill="url(#skyglow)"/>
    <!-- distant campus silhouettes -->
    <g fill="#E7CB96">
      <rect x="1160" y="418" width="92" height="198"/>
      <rect x="1272" y="462" width="118" height="154"/>
      <rect x="1408" y="432" width="104" height="184"/>
    </g>
    <g fill="#DDBE87">
      <rect x="1172" y="436" width="14" height="14"/><rect x="1196" y="436" width="14" height="14"/><rect x="1220" y="436" width="14" height="14"/>
      <rect x="1172" y="464" width="14" height="14"/><rect x="1196" y="464" width="14" height="14"/><rect x="1220" y="464" width="14" height="14"/>
      <rect x="1284" y="480" width="12" height="12"/><rect x="1306" y="480" width="12" height="12"/><rect x="1328" y="480" width="12" height="12"/><rect x="1350" y="480" width="12" height="12"/>
      <rect x="1284" y="504" width="12" height="12"/><rect x="1306" y="504" width="12" height="12"/><rect x="1328" y="504" width="12" height="12"/><rect x="1350" y="504" width="12" height="12"/>
      <rect x="1420" y="452" width="13" height="13"/><rect x="1444" y="452" width="13" height="13"/><rect x="1468" y="452" width="13" height="13"/>
      <rect x="1420" y="478" width="13" height="13"/><rect x="1444" y="478" width="13" height="13"/><rect x="1468" y="478" width="13" height="13"/>
    </g>
    <!-- campus trees -->
    <g>
      <rect x="1252" y="576" width="10" height="40" fill="#C9A265"/>
      <circle cx="1257" cy="556" r="34" fill="#D2B173"/>
      <rect x="1382" y="580" width="9" height="36" fill="#C9A265"/>
      <circle cx="1386" cy="562" r="28" fill="#D8B87B"/>
      <rect x="1150" y="584" width="9" height="32" fill="#C9A265"/>
      <circle cx="1154" cy="566" r="26" fill="#D2B173"/>
    </g>
    <!-- sun -->
    <circle cx="1250" cy="180" r="52" fill="#FBE7B4"/>
    <circle cx="1250" cy="180" r="34" fill="#FDF3D6"/>
    <!-- mullions -->
    <g fill="#C9BBA0">
      <rect x="1328" y="68" width="16" height="548"/>
      <rect x="1144" y="330" width="384" height="16"/>
    </g>
    <!-- half-raised blind -->
    <rect x="1144" y="68" width="384" height="86" fill="#EDE4CF"/>
    <g stroke="#DCD0B4" stroke-width="4">
      <line x1="1144" y1="90" x2="1528" y2="90"/>
      <line x1="1144" y1="112" x2="1528" y2="112"/>
      <line x1="1144" y1="134" x2="1528" y2="134"/>
    </g>
    <rect x="1144" y="150" width="384" height="8" fill="#D3C6A6"/>
    <line x1="1490" y1="158" x2="1490" y2="205" stroke="#C0B190" stroke-width="3"/>
    <circle cx="1490" cy="210" r="5" fill="#C0B190"/>
    <!-- sill -->
    <rect x="1112" y="628" width="448" height="18" fill="#D8CCB2"/>
  </g>

  <!-- sunbeam across the room -->
  <polygon points="1150,90 1540,90 1080,660 620,660" fill="url(#beam)"/>
  <!-- warm patch on floor -->
  <polygon points="900,660 1330,660 1430,780 1010,780" fill="#EBC88A" opacity="0.38"/>

  <!-- ===== floor-to-ceiling bookshelf (left) ===== -->
  <g>
    <rect x="56" y="16" width="470" height="700" fill="#8A6E4E"/>
    <rect x="72" y="32" width="438" height="668" fill="#77593B"/>
    <!-- shelf boards -->
    <g fill="#8A6E4E">
      <rect x="72" y="150" width="438" height="14"/>
      <rect x="72" y="286" width="438" height="14"/>
      <rect x="72" y="422" width="438" height="14"/>
      <rect x="72" y="558" width="438" height="14"/>
    </g>
    <!-- shelf 1: books -->
    <g>
      <rect x="86" y="58" width="24" height="92" fill="#B0563A"/>
      <rect x="112" y="66" width="20" height="84" fill="#8C9B7A"/>
      <rect x="134" y="52" width="28" height="98" fill="#D9C9A8"/>
      <rect x="164" y="70" width="18" height="80" fill="#6E6A5E"/>
      <rect x="184" y="60" width="24" height="90" fill="#9AA7B4"/>
      <rect x="210" y="72" width="20" height="78" fill="#C05A32"/>
      <rect x="232" y="56" width="26" height="94" fill="#A9927B"/>
      <polygon points="262,150 262,64 296,84 296,150" fill="#8C7B62"/>
      <rect x="310" y="66" width="22" height="84" fill="#7A8A99"/>
      <rect x="334" y="54" width="26" height="96" fill="#B98F58"/>
      <rect x="362" y="70" width="18" height="80" fill="#8C9B7A"/>
      <rect x="382" y="60" width="24" height="90" fill="#C7B99B"/>
      <rect x="408" y="68" width="20" height="82" fill="#A05A40"/>
      <rect x="430" y="56" width="26" height="94" fill="#6E7B6A"/>
      <rect x="458" y="72" width="20" height="78" fill="#D2C3A0"/>
      <rect x="480" y="62" width="22" height="88" fill="#93867A"/>
    </g>
    <!-- shelf 2: books + frame -->
    <g>
      <rect x="86" y="196" width="26" height="90" fill="#7A8A99"/>
      <rect x="114" y="206" width="20" height="80" fill="#C05A32"/>
      <rect x="136" y="192" width="24" height="94" fill="#D9C9A8"/>
      <rect x="162" y="210" width="18" height="76" fill="#8C9B7A"/>
      <rect x="182" y="198" width="26" height="88" fill="#A9927B"/>
      <rect x="210" y="204" width="22" height="82" fill="#6E6A5E"/>
      <polygon points="238,286 238,208 268,222 268,286" fill="#B98F58"/>
      <rect x="292" y="252" width="130" height="12" fill="#9AA7B4"/>
      <rect x="300" y="238" width="118" height="12" fill="#C7B99B"/>
      <rect x="296" y="224" width="110" height="12" fill="#A05A40"/>
      <rect x="440" y="216" width="58" height="70" fill="#E8E0CE" stroke="#8A6E4E" stroke-width="5"/>
      <circle cx="469" cy="244" r="12" fill="#C7B99B"/>
      <rect x="452" y="262" width="34" height="6" fill="#C7B99B"/>
    </g>
    <!-- shelf 3: paper piles + binders + reprint box -->
    <g>
      <g fill="#EFEAE0">
        <rect x="88" y="392" width="120" height="10"/>
        <rect x="92" y="380" width="112" height="10"/>
        <rect x="86" y="368" width="120" height="10"/>
        <rect x="94" y="356" width="108" height="10"/>
        <rect x="90" y="344" width="116" height="10"/>
      </g>
      <g stroke="#C8C0AE" stroke-width="2">
        <line x1="96" y1="349" x2="196" y2="349"/>
        <line x1="98" y1="373" x2="194" y2="373"/>
        <line x1="94" y1="397" x2="198" y2="397"/>
      </g>
      <rect x="132" y="336" width="34" height="8" fill="#C05A32" opacity="0.85"/>
      <rect x="226" y="330" width="30" height="92" fill="#B0563A"/>
      <rect x="258" y="330" width="30" height="92" fill="#6E7B6A"/>
      <rect x="290" y="330" width="30" height="92" fill="#9AA7B4"/>
      <g fill="#EFEAE0">
        <rect x="232" y="344" width="18" height="30"/>
        <rect x="264" y="344" width="18" height="30"/>
        <rect x="296" y="344" width="18" height="30"/>
      </g>
      <rect x="348" y="352" width="150" height="70" fill="#C7A97E"/>
      <rect x="348" y="352" width="150" height="14" fill="#B6955F"/>
      <g fill="#F2EDE2">
        <rect x="360" y="330" width="14" height="26"/>
        <rect x="378" y="324" width="14" height="32"/>
        <rect x="396" y="332" width="14" height="24"/>
        <rect x="414" y="326" width="14" height="30"/>
        <rect x="432" y="330" width="14" height="26"/>
        <rect x="450" y="322" width="14" height="34"/>
      </g>
    </g>
    <!-- shelf 4: books + pothos + papers -->
    <g>
      <rect x="86" y="472" width="22" height="86" fill="#8C9B7A"/>
      <rect x="110" y="480" width="26" height="78" fill="#D2C3A0"/>
      <rect x="138" y="468" width="20" height="90" fill="#A05A40"/>
      <rect x="160" y="478" width="24" height="80" fill="#7A8A99"/>
      <rect x="186" y="470" width="22" height="88" fill="#C7B99B"/>
      <rect x="210" y="482" width="20" height="76" fill="#6E6A5E"/>
      <rect x="232" y="474" width="26" height="84" fill="#B98F58"/>
      <path d="M330 558 h56 l-8 -44 h-40 z" fill="#B0563A"/>
      <g fill="#7E8F6C">
        <ellipse cx="356" cy="502" rx="30" ry="16"/>
        <ellipse cx="330" cy="512" rx="14" ry="9"/>
        <ellipse cx="384" cy="512" rx="13" ry="8"/>
        <path d="M338 520 q-16 30 -6 38" stroke="#7E8F6C" stroke-width="5" fill="none"/>
        <ellipse cx="332" cy="562" rx="10" ry="7"/>
      </g>
      <g fill="#EFEAE0">
        <rect x="420" y="546" width="86" height="9"/>
        <rect x="424" y="536" width="78" height="9"/>
        <rect x="418" y="526" width="86" height="9"/>
        <rect x="426" y="516" width="76" height="9"/>
      </g>
      <line x1="428" y1="531" x2="498" y2="531" stroke="#C8C0AE" stroke-width="2"/>
    </g>
    <!-- bottom cabinet doors -->
    <g>
      <rect x="86" y="586" width="200" height="114" fill="#84684A"/>
      <rect x="300" y="586" width="200" height="114" fill="#84684A"/>
      <circle cx="270" cy="642" r="6" fill="#5E4830"/>
      <circle cx="316" cy="642" r="6" fill="#5E4830"/>
    </g>
  </g>

  <!-- ===== whiteboard with faded formulas ===== -->
  <g>
    <rect x="586" y="108" width="404" height="288" fill="#FDFCF8" stroke="#C9C2B2" stroke-width="8"/>
    <rect x="740" y="140" width="150" height="200" fill="#EDEBE2" opacity="0.9" transform="rotate(-4 815 240)"/>
    <rect x="640" y="250" width="120" height="110" fill="#F1EFE6" opacity="0.8" transform="rotate(3 700 305)"/>
    <g stroke="#9AA3AB" stroke-width="4" fill="none" stroke-linecap="round">
      <path d="M622 158 q14 -22 28 0 q-14 22 -28 0"/>
      <line x1="662" y1="158" x2="688" y2="158"/>
      <line x1="662" y1="170" x2="688" y2="170"/>
      <path d="M700 146 v28 m-8 -28 h16"/>
      <path d="M622 210 q20 -16 40 0 t40 0"/>
      <line x1="716" y1="204" x2="740" y2="216"/>
      <line x1="716" y1="216" x2="740" y2="204"/>
    </g>
    <g stroke="#AEB6BC" stroke-width="4" fill="none" stroke-linecap="round" opacity="0.75">
      <path d="M910 170 a16 16 0 1 1 -1 -6 z"/>
      <line x1="936" y1="176" x2="962" y2="176"/>
      <path d="M912 216 l16 24 l16 -24"/>
      <line x1="906" y1="252" x2="964" y2="252"/>
      <path d="M622 316 h44 m-22 -20 v40" opacity="0.7"/>
      <path d="M690 300 q12 18 0 36" opacity="0.7"/>
      <path d="M714 300 q-12 18 0 36" opacity="0.7"/>
    </g>
    <ellipse cx="938" cy="214" rx="42" ry="30" fill="none" stroke="#C05A32" stroke-width="4" opacity="0.7"/>
  </g>

  <!-- framed diploma between board and window -->
  <rect x="1028" y="150" width="70" height="94" fill="#EFE8D6" stroke="#8A6E4E" stroke-width="6"/>
  <g stroke="#BDB49C" stroke-width="4" stroke-linecap="round">
    <line x1="1042" y1="176" x2="1084" y2="176"/>
    <line x1="1042" y1="192" x2="1084" y2="192"/>
    <line x1="1048" y1="208" x2="1078" y2="208"/>
  </g>
  <circle cx="1063" cy="226" r="7" fill="#C05A32" opacity="0.8"/>

  <!-- ===== desk with dual monitors ===== -->
  <g>
    <ellipse cx="810" cy="712" rx="330" ry="26" fill="#1C1B18" opacity="0.10"/>
    <g>
      <rect x="608" y="392" width="196" height="128" rx="8" fill="#3A372F"/>
      <rect x="616" y="400" width="180" height="104" fill="url(#screenL)"/>
      <g stroke="#B9B2A0" stroke-width="5" stroke-linecap="round">
        <line x1="630" y1="418" x2="756" y2="418"/>
        <line x1="630" y1="436" x2="778" y2="436"/>
        <line x1="630" y1="454" x2="742" y2="454"/>
        <line x1="630" y1="472" x2="768" y2="472"/>
      </g>
      <rect x="630" y="484" width="70" height="10" fill="#C05A32" opacity="0.7"/>
      <rect x="690" y="520" width="30" height="34" fill="#3A372F"/>
      <rect x="662" y="552" width="88" height="10" rx="5" fill="#3A372F"/>
      <rect x="784" y="404" width="34" height="34" fill="#F2D272" transform="rotate(5 801 421)"/>
      <line x1="790" y1="418" x2="812" y2="420" stroke="#C4A23E" stroke-width="3"/>
      <line x1="790" y1="428" x2="808" y2="430" stroke="#C4A23E" stroke-width="3"/>
    </g>
    <g>
      <rect x="826" y="386" width="200" height="132" rx="8" fill="#3A372F" transform="rotate(-2 926 452)"/>
      <rect x="835" y="395" width="182" height="106" fill="#EDE9DC" transform="rotate(-2 926 448)"/>
      <g transform="rotate(-2 926 448)">
        <polyline points="852,478 890,452 924,462 962,428 996,438" fill="none" stroke="#C05A32" stroke-width="5" stroke-linecap="round"/>
        <g stroke="#C9C2B0" stroke-width="3">
          <line x1="852" y1="486" x2="1000" y2="486"/>
          <line x1="852" y1="486" x2="852" y2="410"/>
        </g>
        <line x1="868" y1="414" x2="936" y2="414" stroke="#8A8574" stroke-width="6" stroke-linecap="round"/>
      </g>
      <rect x="912" y="518" width="30" height="36" fill="#3A372F"/>
      <rect x="884" y="552" width="88" height="10" rx="5" fill="#3A372F"/>
    </g>
    <!-- desk top & legs -->
    <rect x="520" y="556" width="620" height="8" fill="#A6845C"/>
    <rect x="512" y="564" width="636" height="26" fill="url(#deskface)"/>
    <rect x="536" y="590" width="22" height="118" fill="#6E5539"/>
    <rect x="1102" y="590" width="22" height="118" fill="#6E5539"/>
    <rect x="536" y="590" width="588" height="12" fill="#6E5539" opacity="0.6"/>
    <!-- cable dropping behind desk to a power strip on the floor -->
    <path d="M980 588 q6 46 -30 60 q60 8 44 44" fill="none" stroke="#4A463C" stroke-width="4"/>
    <rect x="944" y="690" width="110" height="16" rx="6" fill="#5A554A"/>
    <!-- items on the desk -->
    <g fill="#F4F0E6" stroke="#CFC8B6" stroke-width="2">
      <rect x="560" y="546" width="120" height="11" transform="rotate(-3 620 551)"/>
      <rect x="566" y="535" width="116" height="11" transform="rotate(2 624 540)"/>
      <rect x="562" y="524" width="118" height="11" transform="rotate(-1 621 529)"/>
    </g>
    <line x1="582" y1="530" x2="660" y2="529" stroke="#B7AF9C" stroke-width="2"/>
    <rect x="1052" y="512" width="46" height="46" rx="6" fill="#C05A32"/>
    <path d="M1098 520 q22 4 0 26" fill="none" stroke="#C05A32" stroke-width="8"/>
    <path d="M1068 500 q8 -12 0 -22 m18 22 q-8 -12 0 -22" stroke="#D8CFBB" stroke-width="4" fill="none" stroke-linecap="round" opacity="0.9"/>
    <rect x="1120" y="518" width="34" height="40" rx="4" fill="#6E6A5E"/>
    <line x1="1130" y1="520" x2="1126" y2="494" stroke="#C05A32" stroke-width="5" stroke-linecap="round"/>
    <line x1="1142" y1="520" x2="1146" y2="492" stroke="#3E5A6B" stroke-width="5" stroke-linecap="round"/>
    <!-- keyboard & mouse on desk -->
    <rect x="742" y="534" width="164" height="20" rx="5" fill="#DAD3C2" transform="rotate(-1 824 544)"/>
    <g stroke="#B9B2A0" stroke-width="2" transform="rotate(-1 824 544)">
      <line x1="754" y1="540" x2="892" y2="540"/>
      <line x1="754" y1="548" x2="892" y2="548"/>
    </g>
    <ellipse cx="940" cy="546" rx="14" ry="9" fill="#DAD3C2"/>
  </g>

  <!-- floor plant near window -->
  <g>
    <ellipse cx="1478" cy="792" rx="72" ry="14" fill="#1C1B18" opacity="0.10"/>
    <path d="M1436 700 h86 l-12 -76 h-62 z" fill="#B0563A"/>
    <rect x="1436" y="694" width="86" height="12" fill="#9A4A30"/>
    <g fill="#7E8F6C">
      <path d="M1478 632 q-52 -46 -44 -128 q42 52 52 126 z"/>
      <path d="M1480 632 q54 -40 50 -120 q-44 46 -58 118 z" fill="#6C7D5B"/>
      <path d="M1478 636 q-6 -70 4 -132 q22 66 6 132 z" fill="#8CA07A"/>
    </g>
  </g>

  <!-- soft vignette -->
  <rect width="1600" height="900" fill="url(#vign)"/>
</svg>
