<svg xmlns="http://www.w3.org/2000/svg" viewBox="0 0 600 400" width="600" height="400">
  <rect width="600" height="400" fill="#F7F5F0"/>
  <rect x="40" y="28" width="520" height="344" rx="14" fill="#FFFFFF" stroke="#E4E0D6" stroke-width="2"/>
  <rect x="40" y="28" width="520" height="34" rx="14" fill="#EFEBE2"/>
  <circle cx="64" cy="45" r="5" fill="#C05A32"/>
  <circle cx="82" cy="45" r="5" fill="#E4E0D6"/>
  <circle cx="100" cy="45" r="5" fill="#E4E0D6"/>
  <rect x="120" y="37" width="300" height="16" rx="8" fill="#FFFFFF"/>
  <text x="132" y="49" font-size="11" fill="#6B675E" font-family="sans-serif">file:///index.html</text>
  <rect x="72" y="88" width="180" height="20" rx="4" fill="#1C1B18"/>
  <rect x="72" y="118" width="260" height="10" rx="5" fill="#C05A32" opacity="0.75"/>
  <rect x="72" y="150" width="70" height="22" rx="11" fill="#F3E4DC"/>
  <rect x="152" y="150" width="70" height="22" rx="11" fill="#F3E4DC"/>
  <rect x="232" y="150" width="70" height="22" rx="11" fill="#F3E4DC"/>
  <rect x="72" y="196" width="456" height="90" rx="10" fill="#F7F5F0" stroke="#E4E0D6"/>
  <rect x="90" y="214" width="140" height="12" rx="6" fill="#1C1B18" opacity="0.8"/>
  <rect x="90" y="236" width="380" height="8" rx="4" fill="#6B675E" opacity="0.5"/>
  <rect x="90" y="252" width="320" height="8" rx="4" fill="#6B675E" opacity="0.5"/>
  <rect x="72" y="306" width="200" height="10" rx="5" fill="#E4E0D6"/>
  <text x="300" y="392" font-size="12" fill="#6B675E" text-anchor="middle" font-family="sans-serif">[占位] homepage-doc · 个人网站截图，同名替换真图</text>
</svg>
