<svg xmlns="http://www.w3.org/2000/svg" width="480" height="360" viewBox="0 0 480 360">
  <rect width="480" height="360" fill="#F7EDD9"/>
  <rect width="480" height="360" fill="#54666E" fill-opacity="0.06"/>
  <g stroke="#54666E" stroke-opacity="0.10" stroke-width="1"><line x1="120" y1="24" x2="120" y2="336" /><line x1="176" y1="24" x2="176" y2="336" /><line x1="232" y1="24" x2="232" y2="336" /><line x1="288" y1="24" x2="288" y2="336" /><line x1="344" y1="24" x2="344" y2="336" /><line x1="400" y1="24" x2="400" y2="336" /><line x1="96" y1="72" x2="456" y2="72" /><line x1="96" y1="128" x2="456" y2="128" /><line x1="96" y1="184" x2="456" y2="184" /><line x1="96" y1="240" x2="456" y2="240" /><line x1="96" y1="296" x2="456" y2="296" /></g>
  <rect x="-70" y="-70" width="300" height="300" rx="72" transform="rotate(12 80 80)" fill="#54666E" fill-opacity="0.92"/>
  <g transform="translate(36 44) scale(4.2)"><path d="M4 5h16v14H4z" fill="none" stroke="#FFFBF0" stroke-width="1.7" stroke-linecap="round" stroke-linejoin="round"/><path d="M4 9h16" fill="none" stroke="#FFFBF0" stroke-width="1.7" stroke-linecap="round" stroke-linejoin="round"/><path d="M6.5 7h.01" fill="none" stroke="#FFFBF0" stroke-width="1.7" stroke-linecap="round" stroke-linejoin="round"/><path d="M9 7h.01" fill="none" stroke="#FFFBF0" stroke-width="1.7" stroke-linecap="round" stroke-linejoin="round"/><path d="M7 13h4" fill="none" stroke="#FFFBF0" stroke-width="1.7" stroke-linecap="round" stroke-linejoin="round"/><path d="M7 16h6" fill="none" stroke="#FFFBF0" stroke-width="1.7" stroke-linecap="round" stroke-linejoin="round"/><path d="M14.5 12.5l2.5 2-2.5 2" fill="none" stroke="#FFFBF0" stroke-width="1.7" stroke-linecap="round" stroke-linejoin="round"/></g>
  <rect x="0" y="350" width="480" height="10" fill="#54666E" fill-opacity="0.85"/>
  <text x="466" y="338" text-anchor="end" font-family="monospace" font-size="9"
        fill="#54666E" fill-opacity="0.45">cover-homepage-v1</text>
</svg>
